<svg xmlns="http://www.w3.org/2000/svg" width="34" height="40" fill="none" data-inject-url="https://edublink.html.devsblink.com/assets/images/animated-svg-icons/online-degree.svg" class="svgInject"><path d="m7.705 25.594 5.149 5.246c.161.162.256.39.256.62v3.57c0 .38.238.714.589.838 1.358.466 4.769.866 7.267 2.99.57.476 1.435.047 1.435-.686v-3.78c0-1.4 1.073-2.542 2.46-2.685 2.242-.248 5.187-1.762 5.016-8.075a.895.895 0 0 1 .893-.904h1.055c1.026 0 1.586-1.19.93-1.98l-3.068-3.733a1.99 1.99 0 0 1-.456-1.266v-5.466c.02-4.084-3.363-9.33-9.775-9.33C13.044.952 8.72 3.58 8.72 6.455" stroke="#1ab69d" stroke-width="2" stroke-miterlimit="10" stroke-linejoin="round" style="stroke-dasharray:86,88;stroke-dashoffset:0"/><path d="M24.101 5.99v18.005c0 .98-.788 1.77-1.767 1.77h-2.156a.626.626 0 0 0-.551.315l-1.653 2.685a.164.164 0 0 1-.247.038l-3.173-2.866a.68.68 0 0 0-.437-.172h-11.4c-.978 0-1.767-.8-1.767-1.77V7.883c0-.98.789-1.771 1.767-1.771h16.045" stroke="#1ab69d" stroke-width="2" stroke-miterlimit="10" stroke-linecap="round" stroke-linejoin="round" style="stroke-dasharray:81,83;stroke-dashoffset:0"/><path d="M12.217 17.567a1.73 1.73 0 0 0 1.729-1.732 1.73 1.73 0 0 0-1.73-1.733 1.73 1.73 0 0 0-1.728 1.732c0 .957.774 1.733 1.729 1.733ZM7.705 12.969c.954 0 1.729-.776 1.729-1.733 0-.957-.775-1.733-1.73-1.733-.954 0-1.728.776-1.728 1.733 0 .957.774 1.733 1.729 1.733ZM16.73 12.969c.954 0 1.728-.776 1.728-1.733 0-.957-.774-1.733-1.728-1.733-.955 0-1.73.776-1.73 1.733 0 .957.775 1.733 1.73 1.733ZM7.705 22.167a1.73 1.73 0 0 0 1.729-1.733 1.73 1.73 0 0 0-1.73-1.733 1.73 1.73 0 0 0-1.728 1.733 1.73 1.73 0 0 0 1.729 1.733ZM16.73 22.167a1.73 1.73 0 0 0 1.728-1.733 1.73 1.73 0 0 0-1.728-1.733A1.73 1.73 0 0 0 15 20.434a1.73 1.73 0 0 0 1.73 1.733Z" stroke="#1ab69d" stroke-width="2" stroke-miterlimit="10" style="stroke-dasharray:11,13;stroke-dashoffset:0"/><path d="m13.347 14.53 2.119-2.124" stroke="#1ab69d" stroke-width="2" stroke-miterlimit="10" style="stroke-dasharray:3,5;stroke-dashoffset:0"/><path d="M10.915 14.7 8.74 12.52" stroke="#1ab69d" stroke-width="2" stroke-miterlimit="10" style="stroke-dasharray:4,6;stroke-dashoffset:0"/><path d="M10.858 17.73 8.74 19.853" stroke="#1ab69d" stroke-width="2" stroke-miterlimit="10" style="stroke-dasharray:3,5;stroke-dashoffset:0"/><path d="m13.28 17.558 2.186 2.18" stroke="#1ab69d" stroke-width="2" stroke-miterlimit="10" style="stroke-dasharray:4,6;stroke-dashoffset:0"/><path d="M21.45 6.55a.438.438 0 1 0 0-.874.438.438 0 0 0 0 .875Z" stroke="#1ab69d" stroke-miterlimit="10" stroke-linecap="round" stroke-linejoin="round" style="stroke-dasharray:3,5;stroke-dashoffset:0"/></svg>