<svg xmlns="http://www.w3.org/2000/svg" width="40" height="40" fill="none" data-inject-url="https://edublink.html.devsblink.com/assets/images/animated-svg-icons/off-campus-programs.svg" class="svgInject"><path d="M38.095 39.047H1.905a.955.955 0 0 1-.953-.952V1.905c0-.524.429-.953.953-.953h36.19c.524 0 .952.429.952.953v36.19a.955.955 0 0 1-.952.952Z" stroke="#4664e4" stroke-width="2" stroke-miterlimit="10" style="stroke-dasharray:151,153;stroke-dashoffset:0"/><path d="M.952 9.752h38.095" stroke="#4664e4" stroke-width="2" stroke-miterlimit="10" style="stroke-dasharray:39,41;stroke-dashoffset:0"/><path d="m14.4 18.238-5.048 5.848L14 29.924M24.066 18.238l5.039 5.848-4.639 5.838" stroke="#4664e4" stroke-width="2" stroke-miterlimit="10" stroke-linecap="round" stroke-linejoin="round" style="stroke-dasharray:16,18;stroke-dashoffset:0"/><path d="m21.438 18.238-4.524 11.686" stroke="#4664e4" stroke-width="2" stroke-miterlimit="10" stroke-linecap="round" stroke-linejoin="round" style="stroke-dasharray:13,15;stroke-dashoffset:0"/><path d="M5.78 6.009a.419.419 0 1 0 0-.838.419.419 0 0 0 0 .838ZM9.428 6.009a.419.419 0 1 0 0-.838.419.419 0 0 0 0 .838ZM13.066 6.009a.42.42 0 1 0 0-.838.42.42 0 0 0 0 .838Z" stroke="#4664e4" stroke-width="2" stroke-miterlimit="10" stroke-linecap="round" stroke-linejoin="round" style="stroke-dasharray:3,5;stroke-dashoffset:0"/></svg>