<svg xmlns="http://www.w3.org/2000/svg" width="40" height="40" fill="none" data-inject-url="https://edublink.html.devsblink.com/assets/images/animated-svg-icons/hybrid-distance-programs.svg" class="svgInject"><path d="M3.514 30.457a8.754 8.754 0 0 1 0-12.38L18.076 3.513a8.754 8.754 0 0 1 12.381 0 8.754 8.754 0 0 1 0 12.381L15.895 30.457a8.754 8.754 0 0 1-12.38 0Z" stroke="#f8941f" stroke-width="2" stroke-miterlimit="10" stroke-linecap="round" style="stroke-dasharray:97,99;stroke-dashoffset:0"/><path d="M31.372 39.048a7.676 7.676 0 1 0 0-15.353 7.676 7.676 0 0 0 0 15.353Z" stroke="#f8941f" stroke-width="2" stroke-miterlimit="10" stroke-linecap="round" style="stroke-dasharray:49,51;stroke-dashoffset:0"/><path d="m10.79 10.791 12.382 12.381" stroke="#f8941f" stroke-width="2" stroke-miterlimit="10" stroke-linecap="round" style="stroke-dasharray:18,20;stroke-dashoffset:0"/><path d="m25.962 36.781 10.819-10.82" stroke="#f8941f" stroke-width="2" stroke-miterlimit="10" stroke-linecap="round" style="stroke-dasharray:16,18;stroke-dashoffset:0"/><path d="m19.534 9.571 2.419-2.419" stroke="#f8941f" stroke-width="2" stroke-miterlimit="10" stroke-linecap="round" style="stroke-dasharray:4,6;stroke-dashoffset:0"/></svg>