<svg xmlns="http://www.w3.org/2000/svg" width="45" height="40" fill="none" data-inject-url="https://edublink.html.devsblink.com/assets/images/animated-svg-icons/non-degree-programs.svg" class="svgInject"><path d="m26.091 17.285-2.869-4.79a.844.844 0 0 0-1.444 0l-7.375 12.276a.832.832 0 0 0-.048.753l2.686 6.133c.058.143.087.295.058.448l-.895 5.99a.83.83 0 0 0 .828.952h10.917a.83.83 0 0 0 .828-.952l-.895-5.971a.876.876 0 0 1 .058-.448l2.686-6.133a.83.83 0 0 0-.048-.753l-1.935-3.219" stroke="#ee4a62" stroke-width="2" stroke-miterlimit="10" stroke-linecap="round" style="stroke-dasharray:68,70;stroke-dashoffset:0"/><path d="M16.252 31.99h12.497" stroke="#ee4a62" stroke-width="2" stroke-miterlimit="10" stroke-linecap="round" style="stroke-dasharray:13,15;stroke-dashoffset:0"/><path d="M22.5 27.971c1.755 0 3.177-1.407 3.177-3.143 0-1.735-1.422-3.142-3.177-3.142-1.755 0-3.177 1.407-3.177 3.142 0 1.736 1.422 3.143 3.177 3.143Z" stroke="#ee4a62" stroke-width="2" stroke-miterlimit="10" style="stroke-dasharray:20,22;stroke-dashoffset:0"/><path d="M22.5 12.095v6.01" stroke="#ee4a62" stroke-width="2" stroke-miterlimit="10" stroke-linecap="round" stroke-linejoin="round" style="stroke-dasharray:7,9;stroke-dashoffset:0"/><path d="M22.5 7.847c1.925 0 3.485-1.543 3.485-3.447 0-1.904-1.56-3.448-3.485-3.448-1.925 0-3.485 1.544-3.485 3.448s1.56 3.447 3.485 3.447Z" stroke="#ee4a62" stroke-width="2" stroke-miterlimit="10" stroke-linecap="round" stroke-linejoin="round" style="stroke-dasharray:22,24;stroke-dashoffset:0"/><path d="M5.016 4.4h13.999" stroke="#ee4a62" stroke-width="2" stroke-miterlimit="10" stroke-linecap="round" stroke-linejoin="round" style="stroke-dasharray:14,16;stroke-dashoffset:0"/><path d="M2.985 6.4a2.011 2.011 0 0 0 2.022-2c0-1.105-.906-2-2.022-2a2.011 2.011 0 0 0-2.022 2c0 1.104.905 2 2.022 2ZM8.193 18.818a2.011 2.011 0 0 0 2.022-2c0-1.104-.905-2-2.022-2a2.011 2.011 0 0 0-2.022 2c0 1.105.906 2 2.022 2Z" stroke="#ee4a62" stroke-width="2" stroke-miterlimit="10" stroke-linecap="round" stroke-linejoin="round" style="stroke-dasharray:13,15;stroke-dashoffset:0"/><path d="M8.193 15.095c0-5.915 4.834-10.696 10.812-10.696" stroke="#ee4a62" stroke-width="2" stroke-miterlimit="10" style="stroke-dasharray:17,19;stroke-dashoffset:0"/><path d="M39.984 4.4H25.985" stroke="#ee4a62" stroke-width="2" stroke-miterlimit="10" stroke-linecap="round" stroke-linejoin="round" style="stroke-dasharray:14,16;stroke-dashoffset:0"/><path d="M42.006 6.4a2.011 2.011 0 0 0 2.022-2c0-1.105-.906-2-2.022-2a2.011 2.011 0 0 0-2.022 2c0 1.104.905 2 2.022 2ZM36.797 18.818a2.011 2.011 0 0 0 2.022-2c0-1.104-.905-2-2.022-2a2.011 2.011 0 0 0-2.022 2c0 1.105.906 2 2.022 2Z" stroke="#ee4a62" stroke-width="2" stroke-miterlimit="10" stroke-linecap="round" stroke-linejoin="round" style="stroke-dasharray:13,15;stroke-dashoffset:0"/><path d="M36.797 15.095c0-5.915-4.833-10.696-10.812-10.696" stroke="#ee4a62" stroke-width="2" stroke-miterlimit="10" style="stroke-dasharray:17,19;stroke-dashoffset:0"/><path d="M27.333 19.79a.44.44 0 0 0 .443-.438.44.44 0 0 0-.443-.438.44.44 0 0 0-.443.438.44.44 0 0 0 .443.438Z" stroke="#ee4a62" stroke-miterlimit="10" stroke-linecap="round" stroke-linejoin="round" style="stroke-dasharray:3,5;stroke-dashoffset:0"/></svg>