<svg width="380" height="190" fill="none" xmlns="http://www.w3.org/2000/svg"><g filter="url(#a)"><path d="M40 70c0-27.614 22.386-50 50-50h240c5.523 0 10 4.477 10 10v50c0 27.614-22.386 50-50 50H50c-5.523 0-10-4.477-10-10V70Z" fill="#fff" shape-rendering="crispEdges"/><circle cx="95" cy="75" r="25" fill="#FDEDEF"/><path d="M101.092 85.438c-.953 0-2.292-.345-4.297-1.465-2.438-1.367-4.324-2.63-6.749-5.048-2.337-2.337-3.475-3.85-5.067-6.747-1.8-3.271-1.493-4.986-1.15-5.719.408-.876 1.01-1.4 1.79-1.92a8.61 8.61 0 0 1 1.398-.742l.135-.06c.242-.108.608-.273 1.072-.097.31.116.586.354 1.018.781.887.875 2.1 2.824 2.547 3.781.3.645.5 1.071.5 1.549 0 .559-.282.99-.623 1.455-.064.087-.127.171-.189.252-.371.488-.453.63-.4.881.11.507.922 2.014 2.256 3.346 1.335 1.331 2.798 2.092 3.307 2.2.262.056.406-.029.91-.413.073-.055.147-.113.225-.17.52-.387.931-.66 1.477-.66h.003c.475 0 .882.205 1.556.545.879.443 2.886 1.64 3.766 2.528.428.432.667.707.784 1.016.176.466.01.83-.098 1.075l-.059.134a8.584 8.584 0 0 1-.746 1.395c-.519.777-1.045 1.378-1.923 1.787a3.29 3.29 0 0 1-1.443.316Z" fill="#EE4A62"/><path d="M140.122 66.091c-.858 0-1.647-.2-2.366-.598a4.546 4.546 0 0 1-1.703-1.664c-.416-.72-.624-1.525-.624-2.418 0-.893.208-1.694.624-2.405a4.546 4.546 0 0 1 1.703-1.664 4.798 4.798 0 0 1 2.366-.598c.858 0 1.642.2 2.353.598a4.332 4.332 0 0 1 1.69 1.664c.416.71.624 1.512.624 2.405 0 .893-.208 1.699-.624 2.418a4.448 4.448 0 0 1-1.69 1.664 4.727 4.727 0 0 1-2.353.598Zm0-2.028c.728 0 1.309-.243 1.742-.728.442-.485.663-1.127.663-1.924 0-.806-.221-1.447-.663-1.924-.433-.485-1.014-.728-1.742-.728-.737 0-1.326.238-1.768.715-.433.477-.65 1.122-.65 1.937 0 .806.217 1.452.65 1.937.442.477 1.031.715 1.768.715ZM154.58 66h-2.223l-3.718-5.629V66h-2.223v-9.126h2.223l3.718 5.655v-5.655h2.223V66Zm4.224-1.716h2.912V66h-5.135v-9.126h2.223v7.41Zm6.585-7.41V66h-2.223v-9.126h2.223ZM175.554 66h-2.223l-3.718-5.629V66h-2.223v-9.126h2.223l3.718 5.655v-5.655h2.223V66Zm4.225-7.345v1.846h2.977v1.716h-2.977v2.002h3.367V66h-5.59v-9.126h5.59v1.781h-3.367Zm11.647 7.436c-.667 0-1.265-.108-1.794-.325a2.97 2.97 0 0 1-1.274-.962c-.312-.425-.477-.936-.494-1.534h2.366c.035.338.152.598.351.78.199.173.459.26.78.26.329 0 .589-.074.78-.221a.778.778 0 0 0 .286-.637.736.736 0 0 0-.234-.559 1.735 1.735 0 0 0-.559-.364 8.498 8.498 0 0 0-.936-.325 10.295 10.295 0 0 1-1.443-.546 2.667 2.667 0 0 1-.962-.806c-.269-.355-.403-.819-.403-1.391 0-.85.308-1.512.923-1.989.615-.485 1.417-.728 2.405-.728 1.005 0 1.816.243 2.431.728.615.477.945 1.144.988 2.002h-2.405c-.017-.295-.126-.524-.325-.689-.199-.173-.455-.26-.767-.26-.269 0-.485.074-.65.221-.165.139-.247.342-.247.611 0 .295.139.524.416.689.277.165.711.342 1.3.533.589.2 1.066.39 1.43.572.373.182.693.446.962.793.269.347.403.793.403 1.339 0 .52-.134.992-.403 1.417-.26.425-.641.763-1.144 1.014-.503.251-1.096.377-1.781.377Zm7.27-9.217v5.46c0 .546.134.966.403 1.261.269.295.663.442 1.183.442s.919-.147 1.196-.442c.277-.295.416-.715.416-1.261v-5.46h2.223v5.447c0 .815-.173 1.504-.52 2.067a3.325 3.325 0 0 1-1.404 1.274c-.581.286-1.231.429-1.95.429-.719 0-1.365-.139-1.937-.416a3.211 3.211 0 0 1-1.339-1.274c-.329-.572-.494-1.265-.494-2.08v-5.447h2.223Zm14.327 2.938c0 .529-.121 1.014-.364 1.456-.243.433-.615.784-1.118 1.053-.503.269-1.127.403-1.872.403h-1.378V66h-2.223v-9.126h3.601c.728 0 1.343.126 1.846.377.503.251.88.598 1.131 1.04.251.442.377.949.377 1.521Zm-3.523 1.144c.425 0 .741-.1.949-.299.208-.2.312-.481.312-.845s-.104-.646-.312-.845c-.208-.2-.524-.299-.949-.299h-1.209v2.288h1.209Zm12.025-1.144c0 .529-.121 1.014-.364 1.456-.242.433-.615.784-1.118 1.053-.502.269-1.126.403-1.872.403h-1.378V66h-2.223v-9.126h3.601c.728 0 1.344.126 1.846.377.503.251.88.598 1.131 1.04.252.442.377.949.377 1.521Zm-3.523 1.144c.425 0 .741-.1.949-.299.208-.2.312-.481.312-.845s-.104-.646-.312-.845c-.208-.2-.524-.299-.949-.299h-1.209v2.288h1.209Zm9.387 5.135c-.858 0-1.647-.2-2.366-.598a4.539 4.539 0 0 1-1.703-1.664c-.416-.72-.624-1.525-.624-2.418 0-.893.208-1.694.624-2.405a4.539 4.539 0 0 1 1.703-1.664 4.798 4.798 0 0 1 2.366-.598c.858 0 1.642.2 2.353.598a4.339 4.339 0 0 1 1.69 1.664c.416.71.624 1.512.624 2.405 0 .893-.208 1.699-.624 2.418a4.455 4.455 0 0 1-1.69 1.664 4.727 4.727 0 0 1-2.353.598Zm0-2.028c.728 0 1.308-.243 1.742-.728.442-.485.663-1.127.663-1.924 0-.806-.221-1.447-.663-1.924-.434-.485-1.014-.728-1.742-.728-.737 0-1.326.238-1.768.715-.434.477-.65 1.122-.65 1.937 0 .806.216 1.452.65 1.937.442.477 1.031.715 1.768.715ZM238.336 66l-1.898-3.445h-.533V66h-2.223v-9.126h3.731c.72 0 1.331.126 1.833.377.512.251.893.598 1.144 1.04.252.433.377.919.377 1.456 0 .607-.173 1.148-.52 1.625-.338.477-.84.815-1.508 1.014L240.845 66h-2.509Zm-2.431-5.018h1.378c.408 0 .711-.1.91-.299.208-.2.312-.481.312-.845 0-.347-.104-.62-.312-.819-.199-.2-.502-.299-.91-.299h-1.378v2.262Zm13.213-4.108v1.781H246.7V66h-2.223v-7.345h-2.418v-1.781h7.059Z" fill="#89898B"/><path d="M141.18 91.84v-4.29h-4.28v-1.68h4.28v-4.29h1.68v4.29h4.29v1.68h-4.29v4.29h-1.68Zm16.143 3.48c-1.347 0-2.527-.357-3.54-1.07-1.013-.72-1.803-1.723-2.37-3.01-.56-1.287-.84-2.78-.84-4.48 0-1.707.28-3.2.84-4.48.567-1.287 1.357-2.287 2.37-3 1.013-.72 2.193-1.08 3.54-1.08s2.523.36 3.53 1.08c1.013.713 1.8 1.713 2.36 3 .567 1.28.85 2.773.85 4.48 0 1.7-.283 3.193-.85 4.48-.56 1.287-1.347 2.29-2.36 3.01-1.007.713-2.183 1.07-3.53 1.07Zm0-1.81c.927 0 1.733-.277 2.42-.83.687-.553 1.22-1.337 1.6-2.35.38-1.013.57-2.203.57-3.57 0-1.373-.19-2.563-.57-3.57-.38-1.013-.913-1.797-1.6-2.35-.687-.553-1.493-.83-2.42-.83-.927 0-1.737.277-2.43.83-.687.553-1.22 1.337-1.6 2.35-.38 1.007-.57 2.197-.57 3.57 0 1.367.19 2.557.57 3.57.38 1.013.913 1.797 1.6 2.35.693.553 1.503.83 2.43.83ZM168.506 95V80.5h-1.83v-2h3.86V95h-2.03Zm5.562 0v-.99a134.341 134.341 0 0 0 3.8-3.05 52.324 52.324 0 0 0 2.69-2.39c.727-.707 1.307-1.34 1.74-1.9.44-.567.754-1.09.94-1.57.194-.48.29-.947.29-1.4 0-.673-.16-1.283-.48-1.83a3.627 3.627 0 0 0-1.3-1.32 3.445 3.445 0 0 0-1.82-.49c-.66 0-1.263.163-1.81.49a4.087 4.087 0 0 0-1.37 1.37c-.36.587-.596 1.27-.71 2.05l-1.77-.7c.114-.74.334-1.42.66-2.04a5.893 5.893 0 0 1 1.26-1.61 5.663 5.663 0 0 1 1.74-1.05 5.79 5.79 0 0 1 2.11-.38c1.074 0 2.04.24 2.9.72a5.36 5.36 0 0 1 2.04 1.95c.5.82.75 1.753.75 2.8 0 .533-.08 1.057-.24 1.57-.153.513-.41 1.047-.77 1.6-.353.547-.83 1.133-1.43 1.76a30.343 30.343 0 0 1-2.2 2.05 73.236 73.236 0 0 1-3.09 2.5h8.03V95h-11.96Zm23.817 5.2c-.4-.513-.813-1.15-1.24-1.91a19.005 19.005 0 0 1-1.19-2.6 19.715 19.715 0 0 1-.89-3.17 19.41 19.41 0 0 1-.33-3.66c0-1.293.113-2.517.34-3.67.227-1.153.52-2.213.88-3.18.367-.973.763-1.84 1.19-2.6.427-.76.84-1.397 1.24-1.91l1.26.54c-.46.68-.927 1.55-1.4 2.61-.473 1.06-.87 2.28-1.19 3.66-.313 1.38-.47 2.897-.47 4.55 0 1.613.153 3.107.46 4.48.313 1.373.707 2.593 1.18 3.66.473 1.067.947 1.953 1.42 2.66l-1.26.54Zm8.751-4.88c-.98 0-1.864-.177-2.65-.53a5.06 5.06 0 0 1-1.92-1.48 4.647 4.647 0 0 1-.93-2.21l1.92-.78c.02.627.183 1.18.49 1.66.306.48.726.853 1.26 1.12.533.267 1.143.4 1.83.4.993 0 1.786-.273 2.38-.82.593-.553.89-1.273.89-2.16 0-.633-.147-1.203-.44-1.71a3.241 3.241 0 0 0-1.16-1.2 3.028 3.028 0 0 0-1.62-.45c-.26 0-.48.03-.66.09V85.8h.61c.58 0 1.103-.14 1.57-.42.466-.28.836-.65 1.11-1.11.273-.467.41-.97.41-1.51s-.134-1.027-.4-1.46a2.949 2.949 0 0 0-2.55-1.41c-.547 0-1.05.13-1.51.39-.454.26-.824.61-1.11 1.05-.287.44-.447.937-.48 1.49l-1.67-.66a4.321 4.321 0 0 1 .83-2.05 4.57 4.57 0 0 1 1.7-1.4c.693-.34 1.45-.51 2.27-.51.913 0 1.733.2 2.46.6.726.4 1.3.94 1.72 1.62.42.68.63 1.447.63 2.3 0 .54-.097 1.05-.29 1.53-.187.48-.454.907-.8 1.28a3.894 3.894 0 0 1-1.22.87c.513.193.97.483 1.37.87.406.387.723.853.95 1.4.233.54.35 1.147.35 1.82 0 .92-.22 1.747-.66 2.48-.434.727-1.05 1.3-1.85 1.72-.8.42-1.744.63-2.83.63Zm15.678-.32v-3.13h-8.26v-.78l8.17-12.59h2.01v11.58h1.92v1.79h-1.92V95h-1.92Zm-5.56-4.92h5.56v-8.8l-5.56 8.8Zm17.441 5.23c-.887 0-1.72-.14-2.5-.42a5.974 5.974 0 0 1-2.02-1.23 4.945 4.945 0 0 1-1.28-1.93l1.62-.79a3.72 3.72 0 0 0 1.55 1.95c.753.48 1.626.72 2.62.72.8 0 1.493-.153 2.08-.46a3.381 3.381 0 0 0 1.38-1.32c.326-.567.49-1.233.49-2 0-.867-.207-1.613-.62-2.24a3.977 3.977 0 0 0-1.69-1.46c-.72-.34-1.547-.51-2.48-.51-.767 0-1.49.14-2.17.42-.68.28-1.307.69-1.88 1.23l1.37-8.77h8.42v1.79h-6.71l-.74 4.78c1.34-.66 2.72-.843 4.14-.55.866.12 1.626.413 2.28.88a4.734 4.734 0 0 1 1.53 1.8c.373.733.56 1.577.56 2.53 0 1.207-.27 2.227-.81 3.06a5.18 5.18 0 0 1-2.16 1.88c-.9.427-1.894.64-2.98.64Zm9.687 4.89-1.26-.54a16.111 16.111 0 0 0 1.66-3.2 19.977 19.977 0 0 0 1.03-3.68c.24-1.287.36-2.593.36-3.92 0-1.287-.113-2.567-.34-3.84a20.029 20.029 0 0 0-1.02-3.69 15.804 15.804 0 0 0-1.69-3.29l1.26-.54c1.173 1.54 2.07 3.293 2.69 5.26.627 1.96.94 3.99.94 6.09 0 2.033-.303 4.033-.91 6a16.982 16.982 0 0 1-2.72 5.35Zm17.656-4.88c-.92 0-1.754-.15-2.5-.45a5.775 5.775 0 0 1-1.9-1.25 5.592 5.592 0 0 1-1.62-3.96c0-.833.18-1.7.54-2.6a9.118 9.118 0 0 1 1.46-2.45l5.1-6.11h2.47l-5.03 5.98c.306-.16.626-.28.96-.36.34-.087.693-.13 1.06-.13.74 0 1.433.14 2.08.42a5.08 5.08 0 0 1 1.7 1.17 5.476 5.476 0 0 1 1.14 1.8c.28.687.42 1.447.42 2.28 0 1.107-.25 2.087-.75 2.94a5.273 5.273 0 0 1-2.08 2c-.88.48-1.897.72-3.05.72Zm-.08-1.72c.76 0 1.436-.167 2.03-.5a3.738 3.738 0 0 0 1.4-1.39c.34-.587.51-1.253.51-2 0-.76-.174-1.437-.52-2.03a3.72 3.72 0 0 0-1.39-1.41 3.71 3.71 0 0 0-1.94-.52c-.727 0-1.39.177-1.99.53-.6.353-1.08.833-1.44 1.44-.354.607-.53 1.287-.53 2.04 0 .7.16 1.343.48 1.93.32.58.77 1.043 1.35 1.39.58.347 1.26.52 2.04.52Zm8.164 1.4 8.12-14.71h-7.89V78.5h10.89v.64L272.022 95h-2.4Zm18.753.32c-1.033 0-1.963-.207-2.79-.62-.82-.413-1.47-.98-1.95-1.7-.473-.72-.71-1.537-.71-2.45 0-.987.277-1.87.83-2.65.56-.78 1.3-1.347 2.22-1.7a4.127 4.127 0 0 1-2.4-3.76c0-.807.214-1.527.64-2.16.427-.64 1-1.147 1.72-1.52.727-.373 1.54-.56 2.44-.56.627 0 1.227.1 1.8.3a4.97 4.97 0 0 1 1.54.86c.454.373.81.82 1.07 1.34.267.513.4 1.09.4 1.73 0 .82-.22 1.567-.66 2.24a4.23 4.23 0 0 1-1.75 1.53c.934.36 1.677.93 2.23 1.71.554.78.83 1.663.83 2.65 0 .907-.24 1.72-.72 2.44-.473.713-1.123 1.28-1.95 1.7-.82.413-1.75.62-2.79.62Zm0-1.78c.64 0 1.204-.137 1.69-.41.494-.28.877-.66 1.15-1.14.274-.48.41-1.02.41-1.62 0-.62-.143-1.17-.43-1.65a3.017 3.017 0 0 0-1.15-1.13c-.486-.28-1.043-.42-1.67-.42a3.37 3.37 0 0 0-1.66.41 3.1 3.1 0 0 0-1.16 1.13c-.28.48-.42 1.03-.42 1.65 0 .607.137 1.15.41 1.63.274.48.654.86 1.14 1.14.494.273 1.057.41 1.69.41Zm0-8.12c.547 0 1.034-.12 1.46-.36.434-.247.774-.58 1.02-1 .247-.427.37-.91.37-1.45a2.78 2.78 0 0 0-.38-1.45 2.691 2.691 0 0 0-1.01-1.02 2.86 2.86 0 0 0-1.46-.37c-.54 0-1.023.123-1.45.37a2.783 2.783 0 0 0-1.02 1.02 2.85 2.85 0 0 0-.37 1.45c0 .54.124 1.023.37 1.45.247.42.584.753 1.01 1 .434.24.92.36 1.46.36ZM298.863 95l5.12-6.08c-.567.393-1.23.59-1.99.59-.74 0-1.44-.14-2.1-.42a5.494 5.494 0 0 1-1.74-1.18 5.803 5.803 0 0 1-1.19-1.81 5.904 5.904 0 0 1-.43-2.28c0-1.06.24-2.013.72-2.86a5.28 5.28 0 0 1 2.05-2.02c.88-.5 1.91-.75 3.09-.75 1.193 0 2.243.253 3.15.76a5.46 5.46 0 0 1 2.12 2.05c.513.86.77 1.83.77 2.91 0 .513-.044.99-.13 1.43-.087.44-.217.86-.39 1.26-.174.393-.387.78-.64 1.16-.247.373-.53.75-.85 1.13l-5.09 6.11h-2.47Zm3.62-7.28c.533 0 1.03-.1 1.49-.3.466-.207.873-.49 1.22-.85.353-.367.63-.787.83-1.26.2-.473.3-.98.3-1.52 0-.747-.167-1.41-.501-1.99a3.502 3.502 0 0 0-1.359-1.36c-.574-.333-1.234-.5-1.98-.5-.747 0-1.417.167-2.01.5-.587.333-1.05.79-1.39 1.37-.34.58-.51 1.24-.51 1.98s.17 1.407.51 2a3.882 3.882 0 0 0 1.4 1.41c.593.347 1.26.52 2 .52Z" fill="#EF5269"/></g><defs><filter id="a" x="0" y="0" width="380" height="190" filterUnits="userSpaceOnUse" color-interpolation-filters="sRGB"><feFlood flood-opacity="0" result="BackgroundImageFix"/><feColorMatrix in="SourceAlpha" values="0 0 0 0 0 0 0 0 0 0 0 0 0 0 0 0 0 0 127 0" result="hardAlpha"/><feOffset dy="20"/><feGaussianBlur stdDeviation="20"/><feComposite in2="hardAlpha" operator="out"/><feColorMatrix values="0 0 0 0 0 0 0 0 0 0 0 0 0 0 0 0 0 0 0.1 0"/><feBlend in2="BackgroundImageFix" result="effect1_dropShadow_59_4"/><feBlend in="SourceGraphic" in2="effect1_dropShadow_59_4" result="shape"/></filter></defs></svg>